<?xml version="1.0" standalone="no"?><!DOCTYPE svg PUBLIC "-//W3C//DTD SVG 1.1//EN" "http://www.w3.org/Graphics/SVG/1.1/DTD/svg11.dtd"><svg t="1529463307789" class="icon" style="" viewBox="0 0 1024 1024" version="1.1" xmlns="http://www.w3.org/2000/svg" p-id="1319" xmlns:xlink="http://www.w3.org/1999/xlink" width="200" height="200"><defs><style type="text/css"></style></defs><path d="M173.866667 364.8c12.8-7.466667 28.8-13.866667 50.133333-18.133333 4.266667 10.666667 7.466667 21.333333 7.466667 21.333333s-42.666667 4.266667-57.6-3.2zM308.266667 717.866667h92.8v57.6h-92.8zM725.333333 412.8H309.333333l30.933334-67.2c25.6 4.266667 54.4 11.733333 86.4 23.466667 123.733333 44.8 217.6 20.266667 275.2-8.533334l23.466666 52.266667zM633.6 717.866667h92.8v57.6h-92.8zM221.866667 461.866667h594.133333v206.933333H221.866667z" fill="#0DE28B" p-id="1320"></path><path d="M308.266667 717.866667h92.8v57.6h-92.8zM633.6 717.866667h92.8v57.6h-92.8z" fill="#0DE28B" p-id="1321"></path><path d="M778.666667 412.8l-35.2-76.8-62.933334-135.466667H354.133333L289.066667 341.333333 256 412.8h-82.133333v304h100.266666V810.666667H437.333333v-92.8h162.133334V810.666667h163.2v-92.8h103.466666V412.8H778.666667z m-438.4-66.133333l44.8-97.066667h264.533333L701.866667 362.666667l23.466666 51.2H309.333333l30.933334-67.2z m60.8 428.8h-92.8v-57.6h92.8v57.6z m325.333333 0h-92.8v-57.6h92.8v57.6z m89.6-106.666667H221.866667V461.866667h594.133333v206.933333z" fill="#044236" p-id="1322"></path><path d="M701.866667 361.6c-56.533333 28.8-150.4 52.266667-275.2 8.533333-32-11.733333-60.8-19.2-86.4-23.466666l44.8-97.066667h264.533333l52.266667 112z" fill="#FFFFFF" p-id="1323"></path><path d="M376.533333 548.266667m-38.4 0a38.4 38.4 0 1 0 76.8 0 38.4 38.4 0 1 0-76.8 0Z" fill="#044236" p-id="1324"></path><path d="M665.6 548.266667m-38.4 0a38.4 38.4 0 1 0 76.8 0 38.4 38.4 0 1 0-76.8 0Z" fill="#044236" p-id="1325"></path><path d="M789.333333 276.266667c7.466667-7.466667 19.2-7.466667 26.666667 0s7.466667 19.2 0 26.666666-37.333333 9.6-37.333333 9.6 3.2-28.8 10.666666-36.266666zM220.8 311.466667c-8.533333-6.4-9.6-18.133333-3.2-26.666667 6.4-8.533333 18.133333-9.6 26.666667-3.2s14.933333 36.266667 14.933333 36.266667-29.866667 0-38.4-6.4zM842.666667 305.066667c10.666667-12.8 28.8-13.866667 41.6-3.2 12.8 10.666667 13.866667 28.8 3.2 41.6-10.666667 12.8-55.466667 20.266667-55.466667 20.266666s1.066667-46.933333 10.666667-58.666666z" fill="#044236" p-id="1326"></path><path d="M231.466667 366.933333s-41.6 5.333333-57.6-2.133333c-1.066667 0-1.066667 0-2.133334-1.066667-13.866667-8.533333-17.066667-26.666667-8.533333-40.533333 8.533333-13.866667 26.666667-17.066667 40.533333-8.533333 7.466667 4.266667 14.933333 19.2 20.266667 32 4.266667 10.666667 7.466667 20.266667 7.466667 20.266666z" fill="#044236" p-id="1327"></path></svg>